<?xml version="1.0" encoding="utf-8"?>
<?xml-stylesheet type="text/xsl" href="rss1.xsl"?>
<rss version="2.0" xmlns:atom="http://www.w3.org/2005/Atom" xmlns:content="http://purl.org/rss/1.0/modules/content/" xmlns:dc="http://purl.org/dc/elements/1.1/" xmlns:media="http://search.yahoo.com/mrss/">
<channel>
 <title>Getty</title>
 <link>http://www.gettyimg.com/</link>
 <atom:link href="http://www.gettyimg.com/" rel="self" type="application/rss+xml" />

 
                <item>
                <title><![CDATA[【MASTER &amp; MASTER RIP】Linkin Park - Waiting For The End (4K)]]></title>
                <link><![CDATA[https://sharemania.us/threads/linkin-park-waiting-for-the-end-4k.242401/]]></link>
                <description><![CDATA[<article>
<blockquote class="messageText SelectQuoteContainer ugc baseHtml">
<img src="https://i.postimg.cc/ZKQbXzFn/Linkin-Park-Waiting-For-The-End-mov-thumbs.jpg" class="bbCodeImage LbImage" alt="[​IMG]" data-url="https://i.postimg.cc/ZKQbXzFn/Linkin-Park-Waiting-For-The-End-mov-thumbs.jpg" style=""><br>
<br>
<div class="bbCodeBlock bbCodeVfcHH HiddenContent">
<div class="attribution type">Hidden Content:</div>
<blockquote>You must either reply or click 'Like' to see the hidden information contained here.</blockquote>
</div>Enjoy
<div class="messageTextEndMarker">&nbsp;</div>
</blockquote>
</article>]]></description>
                <author><![CDATA[music videos]]></author>
                </item>

                
                <item>
                <title><![CDATA[【Apple Music】WEB-RiP - 2 Chainz, Lil Wayne &amp; USHER - Transparency [Apple HD Music Video]]]></title>
                <link><![CDATA[https://sharemania.us/threads/2-chainz-lil-wayne-usher-transparency-apple-hd-music-video.242403/]]></link>
                <description><![CDATA[<article>
<blockquote class="messageText SelectQuoteContainer ugc baseHtml">
<span style="font-size: 22px"><b>2 Chainz, Lil Wayne &amp; USHER - Transparency [Apple HD Music Video]</b></span><br>
<br>
<img src="https://imgur.com/8zBzonf.jpg" class="bbCodeImage LbImage" alt="[​IMG]" data-url="https://imgur.com/8zBzonf.jpg" style=""><br>
<br>
<div class="bbCodeBlock bbCodeCode">
<div class="type">Code:</div>
<pre>General
Format                         : MPEG-4
Codec ID                       : M4V  (isom/iso4/M4V /mp42)
File size                      : 242 MiB
Duration                       : 3 min 19 s
Overall bit rate mode          : Variable
Overall bit rate               : 10.2 Mb/s
Movie name                     : Transparency
Performer                      : 2 Chainz, Lil Wayne &amp; USHER
Genre                          : Hip-Hop/Rap
ContentType                    : Music Video
Recorded date                  : UTC 2023-11-17 08:00:00
Encoded date                   : UTC 2024-04-06 23:17:10
Tagged date                    : UTC 2024-04-06 23:17:10
Copyright                      : ℗ 2023 Gamebread, LLC, ,under exclusive license to Def Jam Recordings, a division of UMG Recordings, Inc.
Cover                          : Yes
Rating                         : Explicit
GenreID                        : 1618
AppleStoreCountry              : United Kingdom
AlbumTitleID                   : 435300447
AppleStoreCatalogID            : 1716804527

Video
ID                             : 2
Format                         : AVC
Format/Info                    : Advanced Video Codec
Format profile                 : High@L4
Format settings                : CABAC / 4 Ref Frames
Format settings, CABAC         : Yes
Format settings, Reference fra : 4 frames
Codec ID                       : avc1
Codec ID/Info                  : Advanced Video Coding
Duration                       : 3 min 19 s
Duration_FirstFrame            : 42 ms
Bit rate                       : 9 933 kb/s
Maximum bit rate               : 19.4 Mb/s
Width                          : 1 920 pixels
Height                         : 1 080 pixels
Display aspect ratio           : 16:9
Frame rate mode                : Constant
Frame rate                     : 24.000 FPS
Color space                    : YUV
Chroma subsampling             : 4:2:0
Bit depth                      : 8 bits
Scan type                      : Progressive
Bits/(Pixel*Frame)             : 0.200
Stream size                    : 236 MiB (97%)
Title                          : Core Media Video
Language                       : English
Encoded date                   : UTC 2024-02-15 20:21:54
Tagged date                    : UTC 2024-04-06 23:17:17
Color range                    : Limited
Color primaries                : BT.709
Transfer characteristics       : BT.709
Matrix coefficients            : BT.709
Codec configuration box        : avcC

Audio
ID                             : 1
Format                         : AAC LC
Format/Info                    : Advanced Audio Codec Low Complexity
Codec ID                       : mp4a-40-2
Duration                       : 3 min 19 s
Duration_LastFrame             : -11 ms
Bit rate mode                  : Variable
Bit rate                       : 265 kb/s
Maximum bit rate               : 358 kb/s
Channel(s)                     : 2 channels
Channel layout                 : L R
Sampling rate                  : 48.0 kHz
Frame rate                     : 46.875 FPS (1024 SPF)
Compression mode               : Lossy
Stream size                    : 6.27 MiB (3%)
Title                          : Core Media Audio
Encoded date                   : UTC 2024-02-15 20:21:43
Tagged date                    : UTC 2024-04-06 23:17:17

Text
ID                             : 3
Format                         : EIA-608
Codec ID                       : c608
Duration                       : 3 min 15 s
Bit rate mode                  : Variable
Bit rate                       : 184 b/s
Maximum bit rate               : 1 216 b/s
Frame rate                     : 0.393 FPS
Stream size                    : 4.39 KiB (0%)
Title                          : Core Media Closed Caption
Language                       : English
Forced                         : No
Encoded date                   : UTC 2024-02-15 20:21:54
Tagged date                    : UTC 2024-04-06 23:17:17
</pre>
</div>
<div class="bbCodeBlock bbCodeVfcHH HiddenContent">
<div class="attribution type">Hidden Content:</div>
<blockquote>You must reply before you can see the hidden data contained here.</blockquote>
</div>
<div class="messageTextEndMarker">&nbsp;</div>
</blockquote>
</article>]]></description>
                <author><![CDATA[abby0511]]></author>
                </item>

                
                <item>
                <title><![CDATA[【Actresses】Renee Rea - Watchful Eye (2002)720p]]></title>
                <link><![CDATA[https://sharemania.us/threads/renee-rea-watchful-eye-2002-720p.242402/]]></link>
                <description><![CDATA[<article>
<blockquote class="messageText SelectQuoteContainer ugc baseHtml">
Renee Rea - Watchful Eye (2002)720p<br>
<br>
<a href="https://imgbox.com/9ze1M4tn" target="_blank" class="externalLink" rel="nofollow"><img src="https://thumbs2.imgbox.com/c6/d2/9ze1M4tn_t.jpg" class="bbCodeImage LbImage" alt="[​IMG]" data-url="https://thumbs2.imgbox.com/c6/d2/9ze1M4tn_t.jpg"></a> <a href="https://imgbox.com/QQuEB49z" target="_blank" class="externalLink" rel="nofollow"><img src="https://thumbs2.imgbox.com/85/46/QQuEB49z_t.jpg" class="bbCodeImage LbImage" alt="[​IMG]" data-url="https://thumbs2.imgbox.com/85/46/QQuEB49z_t.jpg"></a> <a href="https://imgbox.com/UwCSjavc" target="_blank" class="externalLink" rel="nofollow"><img src="https://thumbs2.imgbox.com/b4/35/UwCSjavc_t.jpg" class="bbCodeImage LbImage" alt="[​IMG]" data-url="https://thumbs2.imgbox.com/b4/35/UwCSjavc_t.jpg"></a> <a href="https://imgbox.com/rPUCIK3w" target="_blank" class="externalLink" rel="nofollow"><img src="https://thumbs2.imgbox.com/9d/98/rPUCIK3w_t.jpg" class="bbCodeImage LbImage" alt="[​IMG]" data-url="https://thumbs2.imgbox.com/9d/98/rPUCIK3w_t.jpg"></a> <a href="https://imgbox.com/a7DGQFmU" target="_blank" class="externalLink" rel="nofollow"><img src="https://thumbs2.imgbox.com/a1/8f/a7DGQFmU_t.jpg" class="bbCodeImage LbImage" alt="[​IMG]" data-url="https://thumbs2.imgbox.com/a1/8f/a7DGQFmU_t.jpg"></a> <a href="https://imgbox.com/NCp395j5" target="_blank" class="externalLink" rel="nofollow"><img src="https://thumbs2.imgbox.com/b2/55/NCp395j5_t.jpg" class="bbCodeImage LbImage" alt="[​IMG]" data-url="https://thumbs2.imgbox.com/b2/55/NCp395j5_t.jpg"></a><br>
Duration: 0:08:26 Resolution: 1280x720 Format: mp4 Size: 192.28 MB<br>
<a href="https://filejoker.net/lzno5cuy16lp" target="_blank" class="externalLink" rel="nofollow">https://filejoker.net/lzno5cuy16lp</a>
<div class="messageTextEndMarker">&nbsp;</div>
</blockquote>
</article>]]></description>
                <author><![CDATA[piqeros]]></author>
                </item>

                </channel></rss>